{"title":"Arrow S02E12 - 720p HDTV x264 [MKV,AC3,5.1] Ehhhh","uid":9555921,"size":424205138,"categoryP":"video","categoryS":"hd___tv_shows","magnet":"?xt=urn:btih:ef8539974dae117ddcd1de26c2b086e9ba5777a9&amp;dn=Arrow+S02E12+-+720p+HDTV+x264+%5BMKV%2CAC3%2C5.1%5D+Ehhhh&amp;tr=udp%3A%2F%2Ftracker.openbittorrent.com%3A80&amp;tr=udp%3A%2F%2Fopen.demonii.com%3A1337&amp;tr=udp%3A%2F%2Ftracker.coppersurfer.tk%3A6969&amp;tr=udp%3A%2F%2Fexodus.desync.com%3A6969","seeders":1,"leechers":0,"uploader":"mynameisurlz","files":-1,"time":1391360029,"description":"imageimage\n\nArrow offers to train Roy so he can learn to control his newfound super-strength. However, Roy is a rebellious student and refuses to listen unless Arrow reveals his true identity, which Oliver refuses to do. Meanwhile, the Bronze Tiger escapes from prison and steals Malcolm's earthquake machine to sell to the highest bidder. Oliver, Diggle and Felicity attempt to stop the transfer, but Roy gets in the way, putting everyone in danger. Laurel is disbarred and spirals out of control. Moira is thrilled when Walter asks her to dinner, but his reason surprises her. Thea encourages her mother to ask Walter to reconcile.\n\nGeneral\nFormat : Matroska\nFormat version : Version 4 / Version 2\nFile size : 404 MiB\nDuration : 40mn 34s\nOverall bit rate : 1 392 Kbps\nEncoded date : UTC 2014-01-31 09:07:50\nWriting application : mkvmerge v6.6.0 ('The Edge Of The In Between') built on Dec 1 2013 17:55:00\nWriting library : libebml v1.3.0 + libmatroska v1.4.1\n\nVideo\nID : 1\nFormat : AVC\nFormat/Info : Advanced Video Codec\nFormat profile : &lt;a class=&quot;__cf_email__&quot; href=&quot;/cdn-cgi/l/email-protection&quot; data-cfemail=&quot;3c74555b547c7008120d&quot;&gt;[email&amp;#160;protected]&lt;/a&gt;&lt;script cf-hash='f9e31' type=&quot;text/javascript&quot;&gt;\n/* &lt;![CDATA[ */!function(){try{var t=&quot;currentScript&quot;in document?document.currentScript:function(){for(var t=document.getElementsByTagName(&quot;script&quot;),e=t.length;e--;)if(t[e].getAttribute(&quot;cf-hash&quot;))return t[e]}();if(t&amp;&amp;t.previousSibling){var e,r,n,i,c=t.previousSibling,a=c.getAttribute(&quot;data-cfemail&quot;);if(a){for(e=&quot;&quot;,r=parseInt(a.substr(0,2),16),n=2;a.length-n;n+=2)i=parseInt(a.substr(n,2),16)^r,e+=String.fromCharCode(i);e=document.createTextNode(e),c.parentNode.replaceChild(e,c)}}}catch(u){}}();/* ]]&gt; */&lt;/script&gt;\nFormat settings, CABAC : Yes\nFormat settings, ReFrames : 14 frames\nCodec ID : V_MPEG4/ISO/AVC\nDuration : 40mn 34s\nBit rate : 1 010 Kbps\nWidth : 1 280 pixels\nHeight : 720 pixels\nDisplay aspect ratio : 16:9\nFrame rate mode : Constant\nFrame rate : 23.976 fps\nColor space : YUV\nChroma subsampling : 4:2:0\nBit depth : 8 bits\nScan type : Progressive\nBits/(Pixel*Frame) : 0.046\nStream size : 284 MiB (70%)\nWriting library : x264 core 140 r2377kMod 1ca7bb9\nDefault : Yes\nForced : No\n\nAudio\nID : 2\nFormat : AC-3\nFormat/Info : Audio Coding 3\nMode extension : CM (complete main)\nFormat settings, Endianness : Big\nCodec ID : A_AC3\nDuration : 40mn 34s\nBit rate mode : Constant\nBit rate : 384 Kbps\nChannel(s) : 6 channels\nChannel positions : Front: L C R, Side: L R, LFE\nSampling rate : 48.0 KHz\nBit depth : 16 bits\nCompression mode : Lossy\nStream size : 111 MiB (28%)\nDefault : Yes\nForced : No\n\nimageimage","torrent":{"xt":"urn:btih:ef8539974dae117ddcd1de26c2b086e9ba5777a9","amp;dn":"Arrow+S02E12+-+720p+HDTV+x264+%5BMKV%2CAC3%2C5.1%5D+Ehhhh","amp;tr":["udp%3A%2F%2Ftracker.openbittorrent.com%3A80","udp%3A%2F%2Fopen.demonii.com%3A1337","udp%3A%2F%2Ftracker.coppersurfer.tk%3A6969","udp%3A%2F%2Fexodus.desync.com%3A6969"],"infoHash":"ef8539974dae117ddcd1de26c2b086e9ba5777a9","infoHashBuffer":{"type":"Buffer","data":[239,133,57,151,77,174,17,125,220,209,222,38,194,176,134,233,186,87,119,169]},"announce":[],"urlList":[]}}